<?xml version="1.0" encoding="UTF-8" standalone="no"?> <!-- Created with Vectornator for iOS (http://vectornator.io/) --><!DOCTYPE svg PUBLIC "-//W3C//DTD SVG 1.1//EN" "http://www.w3.org/Graphics/SVG/1.1/DTD/svg11.dtd">
<svg height="100%" style="fill-rule:nonzero;clip-rule:evenodd;stroke-linecap:round;stroke-linejoin:round;" xmlns:xlink="http://www.w3.org/1999/xlink" xmlns="http://www.w3.org/2000/svg" xml:space="preserve" width="100%" xmlns:vectornator="http://vectornator.io" version="1.1" viewBox="0 0 1024 1024">
<metadata>
<vectornator:setting key="DimensionsVisible" value="1"/>
<vectornator:setting key="PencilOnly" value="0"/>
<vectornator:setting key="SnapToPoints" value="1"/>
<vectornator:setting key="OutlineMode" value="0"/>
<vectornator:setting key="CMYKEnabledKey" value="0"/>
<vectornator:setting key="RulersVisible" value="1"/>
<vectornator:setting key="SnapToEdges" value="1"/>
<vectornator:setting key="GuidesVisible" value="1"/>
<vectornator:setting key="DisplayWhiteBackground" value="0"/>
<vectornator:setting key="doHistoryDisabled" value="1"/>
<vectornator:setting key="SnapToGuides" value="1"/>
<vectornator:setting key="TimeLapseWatermarkDisabled" value="0"/>
<vectornator:setting key="Units" value="Pixels"/>
<vectornator:setting key="DynamicGuides" value="1"/>
<vectornator:setting key="IsolateActiveLayer" value="0"/>
<vectornator:setting key="SnapToGrid" value="0"/>
</metadata>
<defs>
<linearGradient y1="962" id="LinearGradient" x1="512" y2="62" x2="512" gradientUnits="userSpaceOnUse" gradientTransform="matrix(1 0 0 1 150 -8.69117e-06)">
<stop stop-color="#52646f" offset="0"/>
<stop stop-opacity="0.25" stop-color="#46565e" offset="1"/>
</linearGradient>
<linearGradient y1="681.438" id="LinearGradient_2" x1="238.312" y2="930.344" x2="774.5" gradientUnits="userSpaceOnUse" gradientTransform="matrix(1 0 0 1 150 -8.69117e-06)">
<stop stop-color="#88a7b8" offset="0"/>
<stop stop-color="#6b8491" offset="1"/>
</linearGradient>
</defs>
<g id="Dust" vectornator:layerName="Dust">
<path d="M0+0L1024+0L1024+1024L0+1024L0+0Z" opacity="0" fill="#000000"/>
<path d="M962+662C962+827+827+962+662+962C497+962+362+827+362+662C362+437+654.5+62+662+62C669.5+62+962+437+962+662Z" opacity="1" fill="url(#LinearGradient)"/>
<path d="M388.313+681.437C359.839+681.437+336.781+704.496+336.781+732.969C336.781+761.442+359.839+784.531+388.313+784.531C416.786+784.531+439.875+761.442+439.875+732.969C439.875+704.496+416.786+681.437+388.313+681.437ZM737.875+690.25C714.894+690.25+696.25+708.863+696.25+731.844C696.25+754.825+714.894+773.469+737.875+773.469C760.856+773.469+779.469+754.825+779.469+731.844C779.469+708.863+760.856+690.25+737.875+690.25ZM560.125+806.969C533.377+806.969+511.688+828.659+511.688+855.406C511.688+882.154+533.377+903.812+560.125+903.812C586.873+903.812+608.562+882.154+608.563+855.406C608.563+828.659+586.873+806.969+560.125+806.969ZM888.094+857.562C867.992+857.563+851.688+873.867+851.688+893.969C851.688+914.071+867.992+930.344+888.094+930.344C908.196+930.344+924.5+914.071+924.5+893.969C924.5+873.867+908.196+857.562+888.094+857.562Z" opacity="1" fill="url(#LinearGradient_2)"/>
</g>
</svg>
