<?xml version="1.0" encoding="UTF-8" standalone="no"?> <!-- Created with Vectornator for iOS (http://vectornator.io/) --><!DOCTYPE svg PUBLIC "-//W3C//DTD SVG 1.1//EN" "http://www.w3.org/Graphics/SVG/1.1/DTD/svg11.dtd">
<svg height="100%" style="fill-rule:nonzero;clip-rule:evenodd;stroke-linecap:round;stroke-linejoin:round;" xmlns:xlink="http://www.w3.org/1999/xlink" xmlns="http://www.w3.org/2000/svg" xml:space="preserve" width="100%" xmlns:vectornator="http://vectornator.io" version="1.1" viewBox="0 0 1024 1024">
<metadata>
<vectornator:setting key="DimensionsVisible" value="1"/>
<vectornator:setting key="PencilOnly" value="0"/>
<vectornator:setting key="SnapToPoints" value="1"/>
<vectornator:setting key="OutlineMode" value="0"/>
<vectornator:setting key="CMYKEnabledKey" value="0"/>
<vectornator:setting key="RulersVisible" value="1"/>
<vectornator:setting key="SnapToEdges" value="1"/>
<vectornator:setting key="GuidesVisible" value="1"/>
<vectornator:setting key="DisplayWhiteBackground" value="0"/>
<vectornator:setting key="doHistoryDisabled" value="1"/>
<vectornator:setting key="SnapToGuides" value="1"/>
<vectornator:setting key="TimeLapseWatermarkDisabled" value="0"/>
<vectornator:setting key="Units" value="Pixels"/>
<vectornator:setting key="DynamicGuides" value="1"/>
<vectornator:setting key="IsolateActiveLayer" value="0"/>
<vectornator:setting key="SnapToGrid" value="0"/>
</metadata>
<defs>
<linearGradient y1="962" id="LinearGradient" x1="512" y2="62" x2="512" gradientUnits="userSpaceOnUse" gradientTransform="matrix(1 0 0 1 150 -8.69117e-06)">
<stop stop-color="#52646f" offset="0"/>
<stop stop-opacity="0.25" stop-color="#46565e" offset="1"/>
</linearGradient>
<linearGradient y1="681.438" id="LinearGradient_2" x1="238.312" y2="930.344" x2="774.5" gradientUnits="userSpaceOnUse" gradientTransform="matrix(1 0 0 1 150 -8.69117e-06)">
<stop stop-color="#f8a7b8" offset="0"/>
<stop stop-color="#fb8491" offset="1"/>
</linearGradient>
</defs>
<g id="Dust" vectornator:layerName="Dust">
<path d="M0+0L1024+0L1024+1024L0+1024L0+0Z" opacity="0" fill="#000000"/>
<path d="M962+662C962+827+827+962+662+962C497+962+362+827+362+662C362+437+654.5+62+662+62C669.5+62+962+437+962+662Z" opacity="1" fill="url(#LinearGradient)"/>
<path d="M388.313+681.437C359.839+681.437+336.781+704.496+336.781+732.969C336.781+761.442+359.839+784.531+388.313+784.531C416.786+784.531+439.875+761.442+439.875+732.969C439.875+704.496+416.786+681.437+388.313+681.437ZM737.875+690.25C714.894+690.25+696.25+708.863+696.25+731.844C696.25+754.825+714.894+773.469+737.875+773.469C760.856+773.469+779.469+754.825+779.469+731.844C779.469+708.863+760.856+690.25+737.875+690.25ZM560.125+806.969C533.377+806.969+511.688+828.659+511.688+855.406C511.688+882.154+533.377+903.812+560.125+903.812C586.873+903.812+608.562+882.154+608.563+855.406C608.563+828.659+586.873+806.969+560.125+806.969ZM888.094+857.562C867.992+857.563+851.688+873.867+851.688+893.969C851.688+914.071+867.992+930.344+888.094+930.344C908.196+930.344+924.5+914.071+924.5+893.969C924.5+873.867+908.196+857.562+888.094+857.562Z" opacity="1" fill="url(#LinearGradient_2)"/>
</g>
<g id="Rocc" vectornator:layerName="Rocc">
<path d="M62+62L962+62L962+962L62+962L62+62Z" opacity="0" fill="#000000"/>
<g vectornator:shadowOffset="30" vectornator:shadowOpacity="0.5" vectornator:shadowAngle="0.60422" vectornator:shadowColor="#000000" opacity="1" vectornator:shadowRadius="50">
<path d="M375.231+484.524C360.257+484.524+344.885+495.943+333.452+502.973C311.209+516.594+286.354+514.963+260.955+514.963C254.695+514.963+248.315+514.618+241.883+513.995C229.084+512.708+214.269+511.05+199.878+511.05C192.795+511.05+185.845+511.421+179.28+512.456C140.658+518.517+140.207+561.53+115.908+584.409C104.25+595.351+92.0611+600.723+88.1219+617.169C84.2225+633.456+90.5491+653.63+92.3131+669.44C94.1567+685.846+96.9022+701.736+89.8594+716.909C83.0023+731.724+70.0441+742.215+64.7786+758.688C57.643+780.97+65.9988+801.223+70.3359+822.948C74.421+843.374+70.3359+855.39+67.8822+875.126C63.7441+908.005+80.0313+926.76+112.274+933.086C122.686+935.129+133.548+937.436+143.947+938.935C153.178+940.301+165.407+937.662+173.444+943.763C182.927+950.846+177.914+961.337+192.45+961.881C194.36+961.96+196.244+962+198.114+962C236.803+962+269.165+947.914+306.461+939.983C317.244+937.675+329.818+935.885+340.733+933.179C364.567+927.25+388.667+925.659+412.66+921.202C434.558+917.184+448.232+910.326+459.148+890.71C471.164+869.171+497.876+866.279+506.404+842.485C512.625+825.137+512.094+806.449+509.999+787.403C507.916+768.304+502.505+760.014+494.414+743.7C485.064+724.973+495.98+721.339+505.251+706.577C511.033+697.438+516.803+682.371+514.163+671.403C512.439+664.081+509.031+653.948+504.839+647.688C501.789+643.059+496.377+640.818+494.414+635.167C491.072+625.711+498.301+614.344+497.876+604.543C497.001+586.12+484.693+580.152+470.169+574.011C451.097+565.92+445.486+557.405+447.463+537.789C451.15+501.129+417.024+495.996+388.295+487.946C384.051+485.532+379.674+484.524+375.231+484.524L375.231+484.524Z" opacity="1" fill="#b0bec5"/>
<path d="M506.404+842.485C512.625+825.137+512.094+806.449+509.999+787.403C507.916+768.304+502.505+760.014+494.415+743.7C485.064+724.973+495.98+721.339+505.251+706.577C511.033+697.438+516.803+682.371+514.163+671.403C512.439+664.081+509.031+653.948+504.839+647.688C501.789+643.059+496.377+640.818+494.415+635.167C491.072+625.711+498.301+614.344+497.876+604.543C497.001+586.12+484.693+580.152+470.169+574.011C451.097+565.92+445.486+557.405+447.463+537.789C451.15+501.129+417.024+495.996+388.295+487.946C386.08+486.686+383.826+485.85+381.544+485.306C406.904+499.71+410.193+554.859+408.615+573.626C407.713+583.878+403.442+592.234+404.53+603.508C405.538+613.973+409.875+622.687+409.941+633.377C410.113+658.63+398.455+673.697+406.943+698.844C414.45+721.219+417.62+738.926+390.935+750.544C381.292+754.735+370.708+755.544+362.047+760.677C350.707+767.375+348.426+770.651+335.256+773.264C315.122+777.27+296.196+787.336+296.381+810.229C296.501+822.643+300.334+827.577+292.402+837.763C286.235+845.708+275.399+856.544+264.881+857.658C256.83+858.56+253.528+851.955+246.352+849.594C237.89+846.835+229.826+850.018+222.478+854.382C198.061+868.852+118.428+906.493+88.7188+887.978C79.8059+882.421+74.1425+874.834+69.0494+866.929C68.6515+869.542+68.2536+872.234+67.8955+875.126C63.7574+908.005+80.0446+926.76+112.288+933.086C122.699+935.129+133.562+937.436+143.96+938.935C153.191+940.301+165.42+937.662+173.458+943.763C182.941+950.846+177.927+961.337+192.464+961.881C194.36+961.96+196.244+962+198.114+962C236.803+962+269.165+947.914+306.461+939.983C317.244+937.675+329.818+935.885+340.733+933.179C364.567+927.25+388.667+925.659+412.66+921.202C434.558+917.184+448.232+910.326+459.148+890.71C471.164+869.171+497.863+866.279+506.404+842.485Z" opacity="1" fill="#607d8b"/>
<path d="M259.867+640.539C259.682+634.849+263.594+623.575+267.494+619.517C273.873+612.938+285.293+615.233+292.906+609.874C301.103+604.158+334.394+578.799+341.728+595.537C347.02+607.54+334.155+618.031+345.999+628.456C351.596+633.337+356.464+633.403+354.315+641.494C352.869+647.038+346.98+651.826+346.649+657.542C346.291+662.954+352.485+666.349+352.498+670.872C352.538+678.83+342.046+680.249+336.768+683.154C327.643+688.234+318.212+695.237+310.931+702.744C303.477+710.383+297.19+718.752+285.16+718.169C260.796+716.922+271.446+687.849+269.417+672.543C267.958+661.482+260.199+651.959+259.867+640.539ZM163.033+748.714C161.043+745.783+159.266+738.554+159.916+735.146C161.043+729.509+167.807+726.869+169.983+721.485C172.37+715.702+181.217+691.125+190.74+697.425C197.583+701.935+194.36+711.763+204.149+713.235C208.724+713.871+211.298+712.267+212.916+717.267C214.083+720.675+212.571+725.198+214.322+728.262C215.993+731.246+220.37+730.915+221.921+733.302C224.627+737.453+219.627+741.737+217.823+745.053C214.746+750.836+212.16+757.68+210.913+764.086C209.56+770.638+209.136+777.137+202.65+780.917C189.413+788.517+185.156+769.67+178.909+762.322C174.386+756.937+167.091+754.59+163.033+748.714Z" opacity="1" fill="#607d8b"/>
</g>
</g>
</svg>
